{"title":"https:///day-of-the-dead-720p-5-1-aac-pctechpaul-t8206246.html#m","uid":9238487,"size":1035959290,"categoryP":"video","categoryS":"hd___movies","magnet":"?xt=urn:btih:0038a3099314cf25e9fec4115743d16eb02c737b&amp;dn=https%3A%2F%2F%2Fday-of-the-dead-720p-5-1-aac-pctechpaul-t8206246.html%23m&amp;tr=udp%3A%2F%2Ftracker.openbittorrent.com%3A80&amp;tr=udp%3A%2F%2Fopen.demonii.com%3A1337&amp;tr=udp%3A%2F%2Ftracker.coppersurfer.tk%3A6969&amp;tr=udp%3A%2F%2Fexodus.desync.com%3A6969","seeders":0,"leechers":1,"uploader":"PCTECHPAUL","files":8,"time":1385226160,"description":"**************************************************************\nDay Of The Dead\n**************************************************************\nEncoded By PcTechPaul, View NFO for additional info.\n-------------------------------------------------------------------------------\nGeneral Information\n-------------------------------------------------------------------------------\nType.................: Movie\nPlatform.............: Video\nMore Info............:\n\n\n\nVideo Format.........: mp4\nVideo Bitrate........: 972\nResolution...........: 720p\nColor................: 8 bit\nFPS..................: 23.974\nSource...............: BluRay\nOriginal Format......: NTSC\nGenre................: Horror\nIMDb Rating..........: 7.0\nMovie Information....: http://www.imdb.com/title/tt0088993/\n\n-------------------------------------------------------------------------------\nRelease Notes\n-------------------------------------------------------------------------------\nComplete name : M:Day Of The Deaddayofthedead.mp4\nFormat : MPEG-4\nFormat profile : Base Media / Version 2\nCodec ID : mp42\nFile size : 981 MiB\nDuration : 1h 40mn\nOverall bit rate mode : Variable\nOverall bit rate : 1 361 Kbps\nEncoded date : UTC 2013-11-19 12:14:22\nTagged date : UTC 2013-11-19 12:56:51\n\nVideo\nID : 1\nFormat : AVC\nFormat/Info : Advanced Video Codec\nFormat profile : &lt;a class=&quot;__cf_email__&quot; href=&quot;/cdn-cgi/l/email-protection&quot; data-cfemail=&quot;9cd4f5fbf4dcd0a8b2ac&quot;&gt;[email&amp;#160;protected]&lt;/a&gt;&lt;script cf-hash='f9e31' type=&quot;text/javascript&quot;&gt;\n/* &lt;![CDATA[ */!function(){try{var t=&quot;currentScript&quot;in document?document.currentScript:function(){for(var t=document.getElementsByTagName(&quot;script&quot;),e=t.length;e--;)if(t[e].getAttribute(&quot;cf-hash&quot;))return t[e]}();if(t&amp;&amp;t.previousSibling){var e,r,n,i,c=t.previousSibling,a=c.getAttribute(&quot;data-cfemail&quot;);if(a){for(e=&quot;&quot;,r=parseInt(a.substr(0,2),16),n=2;a.length-n;n+=2)i=parseInt(a.substr(n,2),16)^r,e+=String.fromCharCode(i);e=document.createTextNode(e),c.parentNode.replaceChild(e,c)}}}catch(u){}}();/* ]]&gt; */&lt;/script&gt;\nFormat settings, CABAC : Yes\nFormat settings, ReFrames : 6 frames\nCodec ID : avc1\nCodec ID/Info : Advanced Video Coding\nDuration : 1h 40mn\nBit rate mode : Variable\nBit rate : 972 Kbps\nWidth : 1 280 pixels\nHeight : 688 pixels\nDisplay aspect ratio : 1.85:1\nFrame rate mode : Variable\nFrame rate : 23.976 fps\nMinimum frame rate : 23.974 fps\nMaximum frame rate : 23.981 fps\nColor space : YUV\nChroma subsampling : 4:2:0\nBit depth : 8 bits\nScan type : Progressive\nBits/(Pixel*Frame) : 0.046\nStream size : 700 MiB (71%)\nWriting library : x264 core 130 r2273 b3065e6\nEncoding settings : cabac=1 // deblock=1:0:0 / analyse=0x3:0x113 / me=hex / subme=7 / psy=1 / psy_rd=1.20:0.02 // me_range=16 / chroma_me=1 / trellis=1 / 8x8dct=1 / cqm=0 / deadzone=21,11 / fast_pskip=1 / chroma_qp_offset=-3 / threads=12 / lookahead_threads=2 / sliced_threads=0 / nr=0 / decimate=1 / interlaced=0 / bluray_compat=0 / constrained_intra=0 / bframes=6 / b_pyramid=2 / b_adapt=1 / b_bias=0 / direct=1 / weightb=1 / open_gop=0 / weightp=2 / keyint=240 / keyint_min=24 / scenecut=40 / intra_refresh=0 / rc_lookahead=40 / rc=2pass / mbtree=1 / bitrate=972 / ratetol=1.0 / qcomp=0.60 / qpmin=0 / qpmax=69 / qpstep=4 / cplxblur=20.0 / qblur=0.5 / ip_ratio=1.40 / aq=1:1.00\nColor primaries : BT.709\nTransfer characteristics : BT.709\nMatrix coefficients : BT.709\n\nAudio\nID : 2\nFormat : AAC\nFormat/Info : Advanced Audio Codec\nFormat profile : LC\nCodec ID : 40\nDuration : 1h 40mn\nBit rate mode : Variable\nBit rate : 384 Kbps\nMaximum bit rate : 461 Kbps\nChannel(s) : 6 channels\nChannel positions : Front: L C R, Side: L R, LFE\nSampling rate : 48.0 KHz\nCompression mode : Lossy\nDelay relative to video : 83ms\nStream size : 277 MiB (28%) ","torrent":{"xt":"urn:btih:0038a3099314cf25e9fec4115743d16eb02c737b","amp;dn":"https%3A%2F%2F%2Fday-of-the-dead-720p-5-1-aac-pctechpaul-t8206246.html%23m","amp;tr":["udp%3A%2F%2Ftracker.openbittorrent.com%3A80","udp%3A%2F%2Fopen.demonii.com%3A1337","udp%3A%2F%2Ftracker.coppersurfer.tk%3A6969","udp%3A%2F%2Fexodus.desync.com%3A6969"],"infoHash":"0038a3099314cf25e9fec4115743d16eb02c737b","infoHashBuffer":{"type":"Buffer","data":[0,56,163,9,147,20,207,37,233,254,196,17,87,67,209,110,176,44,115,123]},"announce":[],"urlList":[]}}